<?xml version="1.0" encoding="UTF-8" standalone="no"?>
<!-- Generator: Adobe Illustrator 18.1.1, SVG Export Plug-In . SVG Version: 6.00 Build 0)  -->

<svg
   xmlns:dc="http://purl.org/dc/elements/1.1/"
   xmlns:cc="http://creativecommons.org/ns#"
   xmlns:rdf="http://www.w3.org/1999/02/22-rdf-syntax-ns#"
   xmlns:svg="http://www.w3.org/2000/svg"
   xmlns="http://www.w3.org/2000/svg"
   xmlns:sodipodi="http://sodipodi.sourceforge.net/DTD/sodipodi-0.dtd"
   xmlns:inkscape="http://www.inkscape.org/namespaces/inkscape"
   version="1.1"
   id="Capa_1"
   x="0px"
   y="0px"
   viewBox="0 0 28.911 28.911"
   style="enable-background:new 0 0 28.911 28.911;"
   xml:space="preserve"
   sodipodi:docname="rss.svg"
   inkscape:version="0.92.4 (unknown)"><metadata
   id="metadata71"><rdf:RDF><cc:Work
       rdf:about=""><dc:format>image/svg+xml</dc:format><dc:type
         rdf:resource="http://purl.org/dc/dcmitype/StillImage" /></cc:Work></rdf:RDF></metadata><defs
   id="defs69" /><sodipodi:namedview
   pagecolor="#ffffff"
   bordercolor="#666666"
   borderopacity="1"
   objecttolerance="10"
   gridtolerance="10"
   guidetolerance="10"
   inkscape:pageopacity="0"
   inkscape:pageshadow="2"
   inkscape:window-width="640"
   inkscape:window-height="480"
   id="namedview67"
   showgrid="false"
   inkscape:zoom="8.1629831"
   inkscape:cx="14.4555"
   inkscape:cy="14.4555"
   inkscape:window-x="0"
   inkscape:window-y="47"
   inkscape:window-maximized="0"
   inkscape:current-layer="Capa_1" />
<g
   id="g34"
   style="fill:#ffffff">
	<path
   d="M26.66,1.069H2.836c-3.11,0-2.829,1.464-2.829,2.536v22.302c0,1.068,0.6,1.935,1.341,1.935H27.57   c0.742,0,1.34-0.866,1.34-1.935V4.096C28.91,3.025,29.033,1.069,26.66,1.069z M6.636,25.48c-1.797,0-3.256-1.46-3.256-3.253   c0-1.797,1.459-3.258,3.256-3.258c1.794,0,3.255,1.461,3.255,3.258C9.891,24.02,8.43,25.48,6.636,25.48z M17.832,25.48h-0.014   h-4.134c-0.188,0-0.337-0.151-0.337-0.338c0-5.308-4.321-9.629-9.628-9.629c-0.187,0-0.339-0.151-0.339-0.338v-4.131   c0-0.188,0.152-0.34,0.339-0.34c7.922,0,14.378,6.42,14.437,14.331l0.016,0.107C18.171,25.328,18.019,25.48,17.832,25.48z    M25.001,25.48h-0.018h-4.254c-0.185,0-0.337-0.151-0.337-0.338c0-9.195-7.481-16.675-16.674-16.675   c-0.187,0-0.339-0.152-0.339-0.338V3.874c0-0.187,0.152-0.339,0.339-0.339c11.876,0,21.546,9.633,21.605,21.5l0.018,0.107   C25.341,25.328,25.187,25.48,25.001,25.48z"
   id="path2"
   style="fill:#ffffff" />
	<g
   id="g4"
   style="fill:#ffffff">
	</g>
	<g
   id="g6"
   style="fill:#ffffff">
	</g>
	<g
   id="g8"
   style="fill:#ffffff">
	</g>
	<g
   id="g10"
   style="fill:#ffffff">
	</g>
	<g
   id="g12"
   style="fill:#ffffff">
	</g>
	<g
   id="g14"
   style="fill:#ffffff">
	</g>
	<g
   id="g16"
   style="fill:#ffffff">
	</g>
	<g
   id="g18"
   style="fill:#ffffff">
	</g>
	<g
   id="g20"
   style="fill:#ffffff">
	</g>
	<g
   id="g22"
   style="fill:#ffffff">
	</g>
	<g
   id="g24"
   style="fill:#ffffff">
	</g>
	<g
   id="g26"
   style="fill:#ffffff">
	</g>
	<g
   id="g28"
   style="fill:#ffffff">
	</g>
	<g
   id="g30"
   style="fill:#ffffff">
	</g>
	<g
   id="g32"
   style="fill:#ffffff">
	</g>
</g>
<g
   id="g36">
</g>
<g
   id="g38">
</g>
<g
   id="g40">
</g>
<g
   id="g42">
</g>
<g
   id="g44">
</g>
<g
   id="g46">
</g>
<g
   id="g48">
</g>
<g
   id="g50">
</g>
<g
   id="g52">
</g>
<g
   id="g54">
</g>
<g
   id="g56">
</g>
<g
   id="g58">
</g>
<g
   id="g60">
</g>
<g
   id="g62">
</g>
<g
   id="g64">
</g>
</svg>