<?xml version="1.0" encoding="iso-8859-1"?>
<!-- Generator: Adobe Illustrator 18.1.1, SVG Export Plug-In . SVG Version: 6.00 Build 0)  -->
<svg version="1.1" id="Capa_1" xmlns="http://www.w3.org/2000/svg" xmlns:xlink="http://www.w3.org/1999/xlink" x="0px" y="0px"
	 viewBox="0 0 28.911 28.911" style="enable-background:new 0 0 28.911 28.911;" xml:space="preserve">
<g>
	<path d="M26.66,1.069H2.836c-3.11,0-2.829,1.464-2.829,2.536v22.302c0,1.068,0.6,1.935,1.341,1.935H27.57
		c0.742,0,1.34-0.866,1.34-1.935V4.096C28.91,3.025,29.033,1.069,26.66,1.069z M6.636,25.48c-1.797,0-3.256-1.46-3.256-3.253
		c0-1.797,1.459-3.258,3.256-3.258c1.794,0,3.255,1.461,3.255,3.258C9.891,24.02,8.43,25.48,6.636,25.48z M17.832,25.48h-0.014
		h-4.134c-0.188,0-0.337-0.151-0.337-0.338c0-5.308-4.321-9.629-9.628-9.629c-0.187,0-0.339-0.151-0.339-0.338v-4.131
		c0-0.188,0.152-0.34,0.339-0.34c7.922,0,14.378,6.42,14.437,14.331l0.016,0.107C18.171,25.328,18.019,25.48,17.832,25.48z
		 M25.001,25.48h-0.018h-4.254c-0.185,0-0.337-0.151-0.337-0.338c0-9.195-7.481-16.675-16.674-16.675
		c-0.187,0-0.339-0.152-0.339-0.338V3.874c0-0.187,0.152-0.339,0.339-0.339c11.876,0,21.546,9.633,21.605,21.5l0.018,0.107
		C25.341,25.328,25.187,25.48,25.001,25.48z"/>
	<g>
	</g>
	<g>
	</g>
	<g>
	</g>
	<g>
	</g>
	<g>
	</g>
	<g>
	</g>
	<g>
	</g>
	<g>
	</g>
	<g>
	</g>
	<g>
	</g>
	<g>
	</g>
	<g>
	</g>
	<g>
	</g>
	<g>
	</g>
	<g>
	</g>
</g>
<g>
</g>
<g>
</g>
<g>
</g>
<g>
</g>
<g>
</g>
<g>
</g>
<g>
</g>
<g>
</g>
<g>
</g>
<g>
</g>
<g>
</g>
<g>
</g>
<g>
</g>
<g>
</g>
<g>
</g>
</svg>
